<?xml version="1.0" encoding="UTF-8" standalone="no"?>
<!-- Created with Inkscape (http://www.inkscape.org/) -->

<svg
   width="41.244381mm"
   height="44.979179mm"
   viewBox="0 0 41.244381 44.979179"
   version="1.1"
   id="svg5"
   inkscape:version="1.1.1 (1:1.1+202109281943+c3084ef5ed)"
   sodipodi:docname="laptop.svg"
   xmlns:inkscape="http://www.inkscape.org/namespaces/inkscape"
   xmlns:sodipodi="http://sodipodi.sourceforge.net/DTD/sodipodi-0.dtd"
   xmlns="http://www.w3.org/2000/svg"
   xmlns:svg="http://www.w3.org/2000/svg">
  <sodipodi:namedview
     id="namedview7"
     pagecolor="#ffffff"
     bordercolor="#666666"
     borderopacity="1.0"
     inkscape:pageshadow="2"
     inkscape:pageopacity="0.0"
     inkscape:pagecheckerboard="0"
     inkscape:document-units="mm"
     showgrid="true"
     inkscape:snap-bbox="true"
     inkscape:snap-global="true"
     inkscape:snap-grids="false"
     inkscape:snap-object-midpoints="true"
     inkscape:snap-bbox-midpoints="true"
     inkscape:bbox-paths="true"
     inkscape:bbox-nodes="true"
     inkscape:snap-bbox-edge-midpoints="true"
     showguides="true"
     inkscape:guide-bbox="true"
     inkscape:zoom="2"
     inkscape:cx="65.75"
     inkscape:cy="92.75"
     inkscape:window-width="1366"
     inkscape:window-height="768"
     inkscape:window-x="1024"
     inkscape:window-y="0"
     inkscape:window-maximized="1"
     inkscape:current-layer="layer1">
    <inkscape:grid
       type="xygrid"
       id="grid824"
       enabled="false"
       originx="51.796256"
       originy="-113.36827" />
    <inkscape:grid
       type="axonomgrid"
       id="grid826"
       units="px"
       spacingy="1.3229167"
       enabled="false"
       originx="51.796256"
       originy="-113.36827" />
    <sodipodi:guide
       position="89.706963,32.926306"
       orientation="1,0"
       id="guide7904" />
  </sodipodi:namedview>
  <defs
     id="defs2" />
  <g
     inkscape:label="Layer 1"
     inkscape:groupmode="layer"
     id="layer1"
     transform="translate(51.796257,-113.36827)">
    <g
       id="g10661"
       transform="translate(-63.253051,-34.798393)">
      <path
         style="fill:#808080;stroke:none;stroke-width:0.264583px;stroke-linecap:butt;stroke-linejoin:miter;stroke-opacity:1"
         d="m 11.456794,178.59375 22.913589,13.22917 17.185192,-9.92188 -22.913588,-13.22916 z"
         id="path861" />
      <path
         style="fill:#333333;stroke:none;stroke-width:0.264583px;stroke-linecap:butt;stroke-linejoin:miter;stroke-opacity:1"
         d="m 18.330872,181.23959 5.728397,3.30729 3.437039,-1.98438 -5.728398,-3.30729 z"
         id="path1180" />
      <path
         style="fill:#4d4d4d;stroke:none;stroke-width:0.264583px;stroke-linecap:butt;stroke-linejoin:miter;stroke-opacity:1"
         d="m 28.641987,168.67188 v -19.84375 l 22.913588,13.22916 v 19.84375 z"
         id="path929" />
      <path
         style="fill:#ffccaa;stroke:none;stroke-width:0.264583px;stroke-linecap:butt;stroke-linejoin:miter;stroke-opacity:1"
         d="M 50.409895,179.91667 V 162.71875 L 29.787667,150.8125 v 17.19792 z"
         id="path997" />
      <path
         id="path1281"
         style="fill:#666666;stroke:none;stroke-width:0.264583px;stroke-linecap:butt;stroke-linejoin:miter;stroke-opacity:1"
         d="m 52.701176,161.39583 -1.145667,0.66146 v 19.84375 l 1.145667,-0.66146 z" />
      <path
         id="path1431"
         style="fill:#808080;stroke:none;stroke-width:0.264583px;stroke-linecap:butt;stroke-linejoin:miter;stroke-opacity:1"
         d="m 29.787844,148.16666 -1.145664,0.66146 22.913329,13.22917 1.145667,-0.66146 z" />
      <path
         style="fill:#4d4d4d;stroke:none;stroke-width:0.264583px;stroke-linecap:butt;stroke-linejoin:miter;stroke-opacity:1"
         d="m 11.456794,178.59375 v 1.32292 l 22.913589,13.22917 v -1.32292 z"
         id="path1509" />
      <path
         style="fill:#666666;stroke:none;stroke-width:0.264583px;stroke-linecap:butt;stroke-linejoin:miter;stroke-opacity:1"
         d="m 51.555575,181.90104 v 1.32292 l -17.185192,9.92188 v -1.32292 z"
         id="path1511" />
      <path
         style="fill:#1a1a1a;stroke:none;stroke-width:0.264583px;stroke-linecap:butt;stroke-linejoin:miter;stroke-opacity:1"
         d="m 22.913589,178.59375 1.14568,-0.66146 5.728398,3.3073 -1.14568,0.66145 z"
         id="path2104" />
      <path
         style="fill:#1a1a1a;stroke:none;stroke-width:0.264583px;stroke-linecap:butt;stroke-linejoin:miter;stroke-opacity:1"
         d="m 29.787667,182.5625 1.145678,-0.66146 1.14568,0.66146 -1.14568,0.66146 z"
         id="path2238" />
      <path
         style="fill:#1a1a1a;stroke:none;stroke-width:0.264583px;stroke-linecap:butt;stroke-linejoin:miter;stroke-opacity:1"
         d="m 32.079026,181.23959 1.145678,-0.66146 1.14568,0.66146 -1.14568,0.66146 z"
         id="path2386" />
      <path
         style="fill:#1a1a1a;stroke:none;stroke-width:0.264583px;stroke-linecap:butt;stroke-linejoin:miter;stroke-opacity:1"
         d="m 34.370386,179.91667 1.145678,-0.66146 1.14568,0.66146 -1.14568,0.66146 z"
         id="path2388" />
      <path
         style="fill:#1a1a1a;stroke:none;stroke-width:0.264583px;stroke-linecap:butt;stroke-linejoin:miter;stroke-opacity:1"
         d="m 38.953103,182.5625 1.145678,-0.66146 1.14568,0.66146 -1.14568,0.66146 z"
         id="path2390" />
      <path
         style="fill:#1a1a1a;stroke:none;stroke-width:0.264583px;stroke-linecap:butt;stroke-linejoin:miter;stroke-opacity:1"
         d="m 36.661744,181.23959 1.145678,-0.66146 1.14568,0.66146 -1.14568,0.66146 z"
         id="path2392" />
      <path
         style="fill:#1a1a1a;stroke:none;stroke-width:0.264583px;stroke-linecap:butt;stroke-linejoin:miter;stroke-opacity:1"
         d="m 29.787668,179.91667 1.145678,-0.66146 1.14568,0.66146 -1.14568,0.66146 z"
         id="path2394" />
      <path
         style="fill:#1a1a1a;stroke:none;stroke-width:0.264583px;stroke-linecap:butt;stroke-linejoin:miter;stroke-opacity:1"
         d="m 27.496309,178.59375 1.145678,-0.66146 1.14568,0.66146 -1.14568,0.66146 z"
         id="path2396" />
      <path
         style="fill:#1a1a1a;stroke:none;stroke-width:0.264583px;stroke-linecap:butt;stroke-linejoin:miter;stroke-opacity:1"
         d="m 29.787668,177.27084 1.145678,-0.66146 1.14568,0.66146 -1.14568,0.66146 z"
         id="path2398" />
      <path
         style="fill:#1a1a1a;stroke:none;stroke-width:0.264583px;stroke-linecap:butt;stroke-linejoin:miter;stroke-opacity:1"
         d="m 27.496309,175.94792 1.145678,-0.66146 1.14568,0.66146 -1.14568,0.66146 z"
         id="path2400" />
      <path
         style="fill:#1a1a1a;stroke:none;stroke-width:0.264583px;stroke-linecap:butt;stroke-linejoin:miter;stroke-opacity:1"
         d="m 25.20495,177.27084 1.145678,-0.66146 1.14568,0.66146 -1.14568,0.66146 z"
         id="path2402" />
      <path
         style="fill:#1a1a1a;stroke:none;stroke-width:0.264583px;stroke-linecap:butt;stroke-linejoin:miter;stroke-opacity:1"
         d="m 22.913591,175.94792 1.145678,-0.66146 1.14568,0.66146 -1.14568,0.66146 z"
         id="path2404" />
      <path
         style="fill:#1a1a1a;stroke:none;stroke-width:0.264583px;stroke-linecap:butt;stroke-linejoin:miter;stroke-opacity:1"
         d="m 25.204949,174.625 1.145678,-0.66146 1.14568,0.66146 -1.14568,0.66146 z"
         id="path2406" />
      <path
         style="fill:#1a1a1a;stroke:none;stroke-width:0.264583px;stroke-linecap:butt;stroke-linejoin:miter;stroke-opacity:1"
         d="m 27.496308,173.30209 1.145678,-0.66146 1.14568,0.66146 -1.14568,0.66146 z"
         id="path2408" />
      <path
         style="fill:#1a1a1a;stroke:none;stroke-width:0.264583px;stroke-linecap:butt;stroke-linejoin:miter;stroke-opacity:1"
         d="m 29.787668,174.625 1.145678,-0.66146 1.14568,0.66146 -1.14568,0.66146 z"
         id="path2410" />
      <path
         style="fill:#1a1a1a;stroke:none;stroke-width:0.264583px;stroke-linecap:butt;stroke-linejoin:miter;stroke-opacity:1"
         d="m 29.787668,174.625 1.145678,-0.66146 1.14568,0.66146 -1.14568,0.66146 z"
         id="path2412" />
      <path
         style="fill:#1a1a1a;stroke:none;stroke-width:0.264583px;stroke-linecap:butt;stroke-linejoin:miter;stroke-opacity:1"
         d="m 32.079027,175.94792 1.145678,-0.66146 1.14568,0.66146 -1.14568,0.66146 z"
         id="path2414" />
      <path
         style="fill:#1a1a1a;stroke:none;stroke-width:0.264583px;stroke-linecap:butt;stroke-linejoin:miter;stroke-opacity:1"
         d="m 20.622232,174.625 1.145678,-0.66146 1.14568,0.66146 -1.14568,0.66146 z"
         id="path2416" />
      <path
         style="fill:#1a1a1a;stroke:none;stroke-width:0.264583px;stroke-linecap:butt;stroke-linejoin:miter;stroke-opacity:1"
         d="m 22.91359,173.30209 1.145678,-0.66146 1.14568,0.66146 -1.14568,0.66146 z"
         id="path2418" />
      <path
         style="fill:#1a1a1a;stroke:none;stroke-width:0.264583px;stroke-linecap:butt;stroke-linejoin:miter;stroke-opacity:1"
         d="m 25.204949,171.97917 1.145678,-0.66146 1.14568,0.66146 -1.14568,0.66146 z"
         id="path2420" />
      <path
         style="fill:#1a1a1a;stroke:none;stroke-width:0.264583px;stroke-linecap:butt;stroke-linejoin:miter;stroke-opacity:1"
         d="m 27.496308,170.65625 1.145678,-0.66146 1.14568,0.66146 -1.14568,0.66146 z"
         id="path2422" />
      <path
         style="fill:#1a1a1a;stroke:none;stroke-width:0.264583px;stroke-linecap:butt;stroke-linejoin:miter;stroke-opacity:1"
         d="m 29.787668,171.97917 1.145678,-0.66146 1.14568,0.66146 -1.14568,0.66146 z"
         id="path2424" />
      <path
         style="fill:#1a1a1a;stroke:none;stroke-width:0.264583px;stroke-linecap:butt;stroke-linejoin:miter;stroke-opacity:1"
         d="m 32.079027,173.30209 1.145678,-0.66146 1.14568,0.66146 -1.14568,0.66146 z"
         id="path2426" />
      <path
         style="fill:#1a1a1a;stroke:none;stroke-width:0.264583px;stroke-linecap:butt;stroke-linejoin:miter;stroke-opacity:1"
         d="m 34.370386,174.625 1.145678,-0.66146 1.14568,0.66146 -1.14568,0.66146 z"
         id="path2428" />
      <path
         style="fill:#1a1a1a;stroke:none;stroke-width:0.264583px;stroke-linecap:butt;stroke-linejoin:miter;stroke-opacity:1"
         d="m 36.661744,175.94792 1.145678,-0.66146 1.14568,0.66146 -1.14568,0.66146 z"
         id="path2430" />
      <path
         style="fill:#1a1a1a;stroke:none;stroke-width:0.264583px;stroke-linecap:butt;stroke-linejoin:miter;stroke-opacity:1"
         d="m 38.953103,177.27084 1.145678,-0.66146 1.14568,0.66146 -1.14568,0.66146 z"
         id="path2432" />
      <path
         style="fill:#1a1a1a;stroke:none;stroke-width:0.264583px;stroke-linecap:butt;stroke-linejoin:miter;stroke-opacity:1"
         d="m 41.244462,178.59375 1.145678,-0.66146 1.14568,0.66146 -1.14568,0.66146 z"
         id="path2434" />
      <path
         style="fill:#1a1a1a;stroke:none;stroke-width:0.264583px;stroke-linecap:butt;stroke-linejoin:miter;stroke-opacity:1"
         d="m 43.535821,179.91667 1.145678,-0.66146 1.14568,0.66146 -1.14568,0.66146 z"
         id="path2436" />
      <path
         style="fill:#1a1a1a;stroke:none;stroke-width:0.264583px;stroke-linecap:butt;stroke-linejoin:miter;stroke-opacity:1"
         d="m 45.82718,181.23959 1.145678,-0.66146 1.14568,0.66146 -1.14568,0.66146 z"
         id="path2438" />
      <path
         style="fill:#1a1a1a;stroke:none;stroke-width:0.264583px;stroke-linecap:butt;stroke-linejoin:miter;stroke-opacity:1"
         d="m 41.244462,181.23959 1.145678,-0.66146 1.14568,0.66146 -1.14568,0.66146 z"
         id="path2440" />
      <path
         style="fill:#1a1a1a;stroke:none;stroke-width:0.264583px;stroke-linecap:butt;stroke-linejoin:miter;stroke-opacity:1"
         d="m 43.535821,182.5625 1.145678,-0.66146 1.14568,0.66146 -1.14568,0.66146 z"
         id="path2442" />
      <path
         style="fill:#1a1a1a;stroke:none;stroke-width:0.264583px;stroke-linecap:butt;stroke-linejoin:miter;stroke-opacity:1"
         d="m 38.953103,179.91667 1.145678,-0.66146 1.14568,0.66146 -1.14568,0.66146 z"
         id="path2444" />
      <path
         style="fill:#1a1a1a;stroke:none;stroke-width:0.264583px;stroke-linecap:butt;stroke-linejoin:miter;stroke-opacity:1"
         d="m 36.661744,178.59376 1.145678,-0.66146 1.14568,0.66146 -1.14568,0.66146 z"
         id="path2446" />
      <path
         style="fill:#1a1a1a;stroke:none;stroke-width:0.264583px;stroke-linecap:butt;stroke-linejoin:miter;stroke-opacity:1"
         d="m 34.370386,177.27084 1.145678,-0.66146 1.14568,0.66146 -1.14568,0.66146 z"
         id="path2448" />
      <path
         style="fill:#1a1a1a;stroke:none;stroke-width:0.264583px;stroke-linecap:butt;stroke-linejoin:miter;stroke-opacity:1"
         d="m 32.079027,178.59375 1.145678,-0.66146 1.14568,0.66146 -1.14568,0.66146 z"
         id="path2450" />
      <path
         style="fill:#1a1a1a;stroke:none;stroke-width:0.264583px;stroke-linecap:butt;stroke-linejoin:miter;stroke-opacity:1"
         d="m 34.370386,182.5625 1.145678,-0.66146 1.14568,0.66146 -1.14568,0.66146 z"
         id="path2452" />
      <path
         style="fill:#1a1a1a;stroke:none;stroke-width:0.264583px;stroke-linecap:butt;stroke-linejoin:miter;stroke-opacity:1"
         d="m 36.661744,183.88542 1.145678,-0.66146 1.14568,0.66146 -1.14568,0.66146 z"
         id="path2454" />
      <path
         style="fill:#1a1a1a;stroke:none;stroke-width:0.264583px;stroke-linecap:butt;stroke-linejoin:miter;stroke-opacity:1"
         d="m 41.244462,183.88542 1.145678,-0.66146 1.14568,0.66146 -1.14568,0.66146 z"
         id="path2456" />
      <path
         style="fill:#1a1a1a;stroke:none;stroke-width:0.264583px;stroke-linecap:butt;stroke-linejoin:miter;stroke-opacity:1"
         d="m 38.953103,185.20834 1.145678,-0.66146 1.14568,0.66146 -1.14568,0.66146 z"
         id="path2458" />
      <path
         style="fill:#1a1a1a;stroke:none;stroke-width:0.264583px;stroke-linecap:butt;stroke-linejoin:miter;stroke-opacity:1"
         d="m 32.079027,183.88542 1.145678,-0.66146 1.14568,0.66146 -1.14568,0.66146 z"
         id="path2460" />
      <path
         style="fill:#1a1a1a;stroke:none;stroke-width:0.264583px;stroke-linecap:butt;stroke-linejoin:miter;stroke-opacity:1"
         d="m 34.370386,185.20834 1.145678,-0.66146 1.14568,0.66146 -1.14568,0.66146 z"
         id="path2462" />
      <path
         style="fill:#1a1a1a;stroke:none;stroke-width:0.264583px;stroke-linecap:butt;stroke-linejoin:miter;stroke-opacity:1"
         d="m 36.661744,186.53125 1.145678,-0.66146 1.14568,0.66146 -1.14568,0.66146 z"
         id="path2464" />
      <path
         style="fill:#1a1a1a;stroke:none;stroke-width:0.264583px;stroke-linecap:butt;stroke-linejoin:miter;stroke-opacity:1"
         d="m 18.330873,175.94792 1.145678,-0.66146 1.14568,0.66146 -1.14568,0.66146 z"
         id="path2466" />
      <path
         style="fill:#1a1a1a;stroke:none;stroke-width:0.264583px;stroke-linecap:butt;stroke-linejoin:miter;stroke-opacity:1"
         d="m 20.622232,177.27084 1.145678,-0.66146 1.14568,0.66146 -1.14568,0.66146 z"
         id="path2468" />
      <g
         id="g2684"
         transform="translate(-45.814763,-9.4600222)"
         style="fill:#000000">
        <path
           style="fill:#000000;stroke:none;stroke-width:0.264583px;stroke-linecap:butt;stroke-linejoin:miter;stroke-opacity:1"
           d="m 68.740768,187.85417 1.14568,-0.66146 5.728398,3.3073 -1.14568,0.66145 z"
           id="path2472" />
        <path
           style="fill:#000000;stroke:none;stroke-width:0.264583px;stroke-linecap:butt;stroke-linejoin:miter;stroke-opacity:1"
           d="m 75.614846,191.82292 1.145678,-0.66146 1.14568,0.66146 -1.14568,0.66146 z"
           id="path2474" />
        <path
           style="fill:#000000;stroke:none;stroke-width:0.264583px;stroke-linecap:butt;stroke-linejoin:miter;stroke-opacity:1"
           d="m 77.906205,190.50001 1.145678,-0.66146 1.14568,0.66146 -1.14568,0.66146 z"
           id="path2476" />
        <path
           style="fill:#000000;stroke:none;stroke-width:0.264583px;stroke-linecap:butt;stroke-linejoin:miter;stroke-opacity:1"
           d="m 80.197565,189.17709 1.145678,-0.66146 1.14568,0.66146 -1.14568,0.66146 z"
           id="path2478" />
        <path
           style="fill:#000000;stroke:none;stroke-width:0.264583px;stroke-linecap:butt;stroke-linejoin:miter;stroke-opacity:1"
           d="m 84.780282,191.82292 1.145678,-0.66146 1.14568,0.66146 -1.14568,0.66146 z"
           id="path2480" />
        <path
           style="fill:#000000;stroke:none;stroke-width:0.264583px;stroke-linecap:butt;stroke-linejoin:miter;stroke-opacity:1"
           d="m 82.488923,190.50001 1.145678,-0.66146 1.14568,0.66146 -1.14568,0.66146 z"
           id="path2482" />
        <path
           style="fill:#000000;stroke:none;stroke-width:0.264583px;stroke-linecap:butt;stroke-linejoin:miter;stroke-opacity:1"
           d="m 75.614847,189.17709 1.145678,-0.66146 1.14568,0.66146 -1.14568,0.66146 z"
           id="path2484" />
        <path
           style="fill:#000000;stroke:none;stroke-width:0.264583px;stroke-linecap:butt;stroke-linejoin:miter;stroke-opacity:1"
           d="m 73.323488,187.85417 1.145678,-0.66146 1.14568,0.66146 -1.14568,0.66146 z"
           id="path2486" />
        <path
           style="fill:#000000;stroke:none;stroke-width:0.264583px;stroke-linecap:butt;stroke-linejoin:miter;stroke-opacity:1"
           d="m 75.614847,186.53126 1.145678,-0.66146 1.14568,0.66146 -1.14568,0.66146 z"
           id="path2488" />
        <path
           style="fill:#000000;stroke:none;stroke-width:0.264583px;stroke-linecap:butt;stroke-linejoin:miter;stroke-opacity:1"
           d="m 73.323488,185.20834 1.145678,-0.66146 1.14568,0.66146 -1.14568,0.66146 z"
           id="path2490" />
        <path
           style="fill:#000000;stroke:none;stroke-width:0.264583px;stroke-linecap:butt;stroke-linejoin:miter;stroke-opacity:1"
           d="m 71.032129,186.53126 1.145678,-0.66146 1.14568,0.66146 -1.14568,0.66146 z"
           id="path2492" />
        <path
           style="fill:#000000;stroke:none;stroke-width:0.264583px;stroke-linecap:butt;stroke-linejoin:miter;stroke-opacity:1"
           d="m 68.74077,185.20834 1.145678,-0.66146 1.14568,0.66146 -1.14568,0.66146 z"
           id="path2494" />
        <path
           style="fill:#000000;stroke:none;stroke-width:0.264583px;stroke-linecap:butt;stroke-linejoin:miter;stroke-opacity:1"
           d="m 71.032128,183.88542 1.145678,-0.66146 1.14568,0.66146 -1.14568,0.66146 z"
           id="path2496" />
        <path
           style="fill:#000000;stroke:none;stroke-width:0.264583px;stroke-linecap:butt;stroke-linejoin:miter;stroke-opacity:1"
           d="m 73.323487,182.56251 1.145678,-0.66146 1.14568,0.66146 -1.14568,0.66146 z"
           id="path2498" />
        <path
           style="fill:#000000;stroke:none;stroke-width:0.264583px;stroke-linecap:butt;stroke-linejoin:miter;stroke-opacity:1"
           d="m 75.614847,183.88542 1.145678,-0.66146 1.14568,0.66146 -1.14568,0.66146 z"
           id="path2500" />
        <path
           style="fill:#000000;stroke:none;stroke-width:0.264583px;stroke-linecap:butt;stroke-linejoin:miter;stroke-opacity:1"
           d="m 75.614847,183.88542 1.145678,-0.66146 1.14568,0.66146 -1.14568,0.66146 z"
           id="path2502" />
        <path
           style="fill:#000000;stroke:none;stroke-width:0.264583px;stroke-linecap:butt;stroke-linejoin:miter;stroke-opacity:1"
           d="m 77.906206,185.20834 1.145678,-0.66146 1.14568,0.66146 -1.14568,0.66146 z"
           id="path2504" />
        <path
           style="fill:#000000;stroke:none;stroke-width:0.264583px;stroke-linecap:butt;stroke-linejoin:miter;stroke-opacity:1"
           d="m 66.449411,183.88542 1.145678,-0.66146 1.14568,0.66146 -1.14568,0.66146 z"
           id="path2506" />
        <path
           style="fill:#000000;stroke:none;stroke-width:0.264583px;stroke-linecap:butt;stroke-linejoin:miter;stroke-opacity:1"
           d="m 68.740769,182.56251 1.145678,-0.66146 1.14568,0.66146 -1.14568,0.66146 z"
           id="path2508" />
        <path
           style="fill:#000000;stroke:none;stroke-width:0.264583px;stroke-linecap:butt;stroke-linejoin:miter;stroke-opacity:1"
           d="m 71.032128,181.23959 1.145678,-0.66146 1.14568,0.66146 -1.14568,0.66146 z"
           id="path2510" />
        <path
           style="fill:#000000;stroke:none;stroke-width:0.264583px;stroke-linecap:butt;stroke-linejoin:miter;stroke-opacity:1"
           d="m 73.323487,179.91667 1.145678,-0.66146 1.14568,0.66146 -1.14568,0.66146 z"
           id="path2512" />
        <path
           style="fill:#000000;stroke:none;stroke-width:0.264583px;stroke-linecap:butt;stroke-linejoin:miter;stroke-opacity:1"
           d="m 75.614847,181.23959 1.145678,-0.66146 1.14568,0.66146 -1.14568,0.66146 z"
           id="path2514" />
        <path
           style="fill:#000000;stroke:none;stroke-width:0.264583px;stroke-linecap:butt;stroke-linejoin:miter;stroke-opacity:1"
           d="m 77.906206,182.56251 1.145678,-0.66146 1.14568,0.66146 -1.14568,0.66146 z"
           id="path2516" />
        <path
           style="fill:#000000;stroke:none;stroke-width:0.264583px;stroke-linecap:butt;stroke-linejoin:miter;stroke-opacity:1"
           d="m 80.197565,183.88542 1.145678,-0.66146 1.14568,0.66146 -1.14568,0.66146 z"
           id="path2518" />
        <path
           style="fill:#000000;stroke:none;stroke-width:0.264583px;stroke-linecap:butt;stroke-linejoin:miter;stroke-opacity:1"
           d="m 82.488923,185.20834 1.145678,-0.66146 1.14568,0.66146 -1.14568,0.66146 z"
           id="path2520" />
        <path
           style="fill:#000000;stroke:none;stroke-width:0.264583px;stroke-linecap:butt;stroke-linejoin:miter;stroke-opacity:1"
           d="m 84.780282,186.53126 1.145678,-0.66146 1.14568,0.66146 -1.14568,0.66146 z"
           id="path2522" />
        <path
           style="fill:#000000;stroke:none;stroke-width:0.264583px;stroke-linecap:butt;stroke-linejoin:miter;stroke-opacity:1"
           d="m 87.071641,187.85417 1.145678,-0.66146 1.14568,0.66146 -1.14568,0.66146 z"
           id="path2524" />
        <path
           style="fill:#000000;stroke:none;stroke-width:0.264583px;stroke-linecap:butt;stroke-linejoin:miter;stroke-opacity:1"
           d="m 89.363,189.17709 1.145678,-0.66146 1.14568,0.66146 -1.14568,0.66146 z"
           id="path2526" />
        <path
           style="fill:#000000;stroke:none;stroke-width:0.264583px;stroke-linecap:butt;stroke-linejoin:miter;stroke-opacity:1"
           d="m 91.654359,190.50001 1.145678,-0.66146 1.14568,0.66146 -1.14568,0.66146 z"
           id="path2528" />
        <path
           style="fill:#000000;stroke:none;stroke-width:0.264583px;stroke-linecap:butt;stroke-linejoin:miter;stroke-opacity:1"
           d="m 87.071641,190.50001 1.145678,-0.66146 1.14568,0.66146 -1.14568,0.66146 z"
           id="path2530" />
        <path
           style="fill:#000000;stroke:none;stroke-width:0.264583px;stroke-linecap:butt;stroke-linejoin:miter;stroke-opacity:1"
           d="m 89.363,191.82292 1.145678,-0.66146 1.14568,0.66146 -1.14568,0.66146 z"
           id="path2532" />
        <path
           style="fill:#000000;stroke:none;stroke-width:0.264583px;stroke-linecap:butt;stroke-linejoin:miter;stroke-opacity:1"
           d="m 84.780282,189.17709 1.145678,-0.66146 1.14568,0.66146 -1.14568,0.66146 z"
           id="path2534" />
        <path
           style="fill:#000000;stroke:none;stroke-width:0.264583px;stroke-linecap:butt;stroke-linejoin:miter;stroke-opacity:1"
           d="m 82.488923,187.85418 1.145678,-0.66146 1.14568,0.66146 -1.14568,0.66146 z"
           id="path2536" />
        <path
           style="fill:#000000;stroke:none;stroke-width:0.264583px;stroke-linecap:butt;stroke-linejoin:miter;stroke-opacity:1"
           d="m 80.197565,186.53126 1.145678,-0.66146 1.14568,0.66146 -1.14568,0.66146 z"
           id="path2538" />
        <path
           style="fill:#000000;stroke:none;stroke-width:0.264583px;stroke-linecap:butt;stroke-linejoin:miter;stroke-opacity:1"
           d="m 77.906206,187.85417 1.145678,-0.66146 1.14568,0.66146 -1.14568,0.66146 z"
           id="path2540" />
        <path
           style="fill:#000000;stroke:none;stroke-width:0.264583px;stroke-linecap:butt;stroke-linejoin:miter;stroke-opacity:1"
           d="m 80.197565,191.82292 1.145678,-0.66146 1.14568,0.66146 -1.14568,0.66146 z"
           id="path2542" />
        <path
           style="fill:#000000;stroke:none;stroke-width:0.264583px;stroke-linecap:butt;stroke-linejoin:miter;stroke-opacity:1"
           d="m 82.488923,193.14584 1.145678,-0.66146 1.14568,0.66146 -1.14568,0.66146 z"
           id="path2544" />
        <path
           style="fill:#000000;stroke:none;stroke-width:0.264583px;stroke-linecap:butt;stroke-linejoin:miter;stroke-opacity:1"
           d="m 87.071641,193.14584 1.145678,-0.66146 1.14568,0.66146 -1.14568,0.66146 z"
           id="path2546" />
        <path
           style="fill:#000000;stroke:none;stroke-width:0.264583px;stroke-linecap:butt;stroke-linejoin:miter;stroke-opacity:1"
           d="m 84.780282,194.46876 1.145678,-0.66146 1.14568,0.66146 -1.14568,0.66146 z"
           id="path2548" />
        <path
           style="fill:#000000;stroke:none;stroke-width:0.264583px;stroke-linecap:butt;stroke-linejoin:miter;stroke-opacity:1"
           d="m 77.906206,193.14584 1.145678,-0.66146 1.14568,0.66146 -1.14568,0.66146 z"
           id="path2550" />
        <path
           style="fill:#000000;stroke:none;stroke-width:0.264583px;stroke-linecap:butt;stroke-linejoin:miter;stroke-opacity:1"
           d="m 80.197565,194.46876 1.145678,-0.66146 1.14568,0.66146 -1.14568,0.66146 z"
           id="path2552" />
        <path
           style="fill:#000000;stroke:none;stroke-width:0.264583px;stroke-linecap:butt;stroke-linejoin:miter;stroke-opacity:1"
           d="m 82.488923,195.79167 1.145678,-0.66146 1.14568,0.66146 -1.14568,0.66146 z"
           id="path2554" />
        <path
           style="fill:#000000;stroke:none;stroke-width:0.264583px;stroke-linecap:butt;stroke-linejoin:miter;stroke-opacity:1"
           d="m 64.158052,185.20834 1.145678,-0.66146 1.14568,0.66146 -1.14568,0.66146 z"
           id="path2556" />
        <path
           style="fill:#000000;stroke:none;stroke-width:0.264583px;stroke-linecap:butt;stroke-linejoin:miter;stroke-opacity:1"
           d="m 66.449411,186.53126 1.145678,-0.66146 1.14568,0.66146 -1.14568,0.66146 z"
           id="path2558" />
      </g>
    </g>
    <rect
       style="fill:#004455;stroke:none;stroke-width:3.4"
       id="rect3843"
       width="89.094948"
       height="89.206604"
       x="-159.72116"
       y="98.469398"
       ry="0.78635222" />
    <g
       id="g8146"
       transform="matrix(0.85142487,0,0,0.85142487,24.415857,80.880506)">
      <g
         id="g4317"
         transform="translate(25.85482,-44.016384)">
        <g
           id="g3819"
           transform="translate(-97.003735,-8.988812)">
          <rect
             style="fill:#f9f9f9;stroke:none;stroke-width:3.81746"
             id="rect3270"
             width="28"
             height="15.75"
             x="-18.169857"
             y="150.6144"
             ry="0.78635347" />
          <path
             id="path3378"
             style="fill:#1a1a1a;stroke:none;stroke-width:12.7228"
             d="m -65.701172,569.25195 c -0.102907,0 -0.204533,0.004 -0.304687,0.0137 -0.100155,0.0101 -0.199965,0.0252 -0.296875,0.0449 -0.09691,0.0197 -0.19198,0.0454 -0.285157,0.0742 -0.09318,0.0289 -0.184485,0.0621 -0.273437,0.0996 -0.08895,0.0375 -0.175528,0.0793 -0.259766,0.125 -0.08424,0.0456 -0.165108,0.0951 -0.24414,0.14843 -0.07903,0.0533 -0.15518,0.10945 -0.228516,0.16992 -0.07334,0.0605 -0.143788,0.12426 -0.210938,0.19141 -0.06715,0.0671 -0.130933,0.1376 -0.191406,0.21094 -0.06047,0.0733 -0.11857,0.14948 -0.171875,0.22851 -0.0533,0.079 -0.10279,0.16186 -0.148437,0.2461 -0.04565,0.0842 -0.0875,0.17081 -0.125,0.25976 -0.0375,0.089 -0.07075,0.18026 -0.09961,0.27344 -0.02886,0.0932 -0.05254,0.18825 -0.07227,0.28516 -0.01973,0.0969 -0.03481,0.19476 -0.04492,0.29492 -0.01011,0.10015 -0.01563,0.20178 -0.01563,0.30469 v 2.49804 h 105.82618 v -2.49804 c 0,-0.10291 -0.0036,-0.20454 -0.01367,-0.30469 -0.01011,-0.10016 -0.02519,-0.19801 -0.04492,-0.29492 -0.01973,-0.0969 -0.04536,-0.19198 -0.07422,-0.28516 -0.02886,-0.0932 -0.06211,-0.18448 -0.09961,-0.27344 -0.0375,-0.0889 -0.07935,-0.17553 -0.125,-0.25976 -0.04565,-0.0842 -0.09513,-0.16706 -0.148438,-0.2461 -0.05331,-0.079 -0.109449,-0.15518 -0.169922,-0.22851 -0.06047,-0.0733 -0.124256,-0.14379 -0.191406,-0.21094 -0.06715,-0.0671 -0.137601,-0.13093 -0.210937,-0.19141 -0.07334,-0.0605 -0.149484,-0.11661 -0.228516,-0.16992 -0.07903,-0.0533 -0.161856,-0.10279 -0.246094,-0.14843 -0.08424,-0.0457 -0.170813,-0.0875 -0.259765,-0.125 -0.08895,-0.0375 -0.180261,-0.0707 -0.273438,-0.0996 -0.09318,-0.0289 -0.188245,-0.0545 -0.285156,-0.0742 -0.09691,-0.0197 -0.194768,-0.0348 -0.294922,-0.0449 -0.100154,-0.0101 -0.20178,-0.0137 -0.304687,-0.0137 z"
             transform="scale(0.26458333)" />
        </g>
        <circle
           style="fill:#0088aa;stroke:none;stroke-width:3.4"
           id="path3969"
           cx="-89.634369"
           cy="142.38014"
           r="0.35887304" />
        <circle
           style="fill:#ff6600;stroke:none;stroke-width:3.4"
           id="circle4051"
           cx="-90.832108"
           cy="142.38014"
           r="0.35887304" />
        <circle
           style="fill:#d40000;stroke:none;stroke-width:3.4"
           id="circle4053"
           cx="-88.43663"
           cy="142.38014"
           r="0.35887304" />
      </g>
      <g
         id="g8084"
         transform="translate(-0.53872142,-8.8087758)">
        <rect
           style="fill:#0088aa;fill-opacity:1;stroke:none;stroke-width:3.99331"
           id="rect4341"
           width="7.7358623"
           height="5.3620796"
           x="-73.646126"
           y="110.4502"
           ry="0" />
        <rect
           style="fill:#4d4d4d;fill-opacity:1;stroke:none;stroke-width:3.46333"
           id="rect7400"
           width="8.3311129"
           height="0.31226382"
           x="-83.649933"
           y="112.11619" />
        <rect
           style="fill:#4d4d4d;fill-opacity:1;stroke:none;stroke-width:3.46333"
           id="rect7402"
           width="8.3311129"
           height="0.31226382"
           x="-83.649933"
           y="112.11619" />
        <rect
           style="fill:#4d4d4d;fill-opacity:1;stroke:none;stroke-width:3.46333"
           id="rect7408"
           width="8.3311129"
           height="0.31226382"
           x="-83.649933"
           y="113.3592" />
        <rect
           style="fill:#4d4d4d;fill-opacity:1;stroke:none;stroke-width:3.46333"
           id="rect7410"
           width="8.3311129"
           height="0.31226382"
           x="-83.649933"
           y="113.3592" />
        <rect
           style="fill:#4d4d4d;fill-opacity:1;stroke:none;stroke-width:3.46333"
           id="rect7416"
           width="8.3311129"
           height="0.31226382"
           x="-83.649933"
           y="114.60222" />
        <rect
           style="fill:#4d4d4d;fill-opacity:1;stroke:none;stroke-width:3.46333"
           id="rect7418"
           width="8.3311129"
           height="0.31226382"
           x="-83.649933"
           y="114.60222" />
        <rect
           style="fill:#4d4d4d;fill-opacity:1;stroke:none;stroke-width:3.46333"
           id="rect7900"
           width="8.3311129"
           height="0.31226382"
           x="-83.649933"
           y="115.84522" />
        <rect
           style="fill:#4d4d4d;fill-opacity:1;stroke:none;stroke-width:5.05377"
           id="rect7902"
           width="17.739668"
           height="0.31226382"
           x="-83.649933"
           y="117.08823" />
        <rect
           style="fill:#4d4d4d;fill-opacity:1;stroke:none;stroke-width:5.05377"
           id="rect7906"
           width="17.739668"
           height="0.31226382"
           x="-83.649933"
           y="118.33124" />
        <rect
           style="fill:#4d4d4d;fill-opacity:1;stroke:none;stroke-width:4.08992"
           id="rect7908"
           width="11.61835"
           height="0.31226382"
           x="-83.649933"
           y="119.57425" />
        <rect
           style="fill:#4d4d4d;fill-opacity:1;stroke:none;stroke-width:3.16608"
           id="rect8070"
           width="6.9624"
           height="0.31226382"
           x="-82.281219"
           y="110.87318" />
      </g>
    </g>
    <path
       sodipodi:type="star"
       style="fill:#ffffff;fill-opacity:0.197683;stroke:none;stroke-width:12.8504"
       id="path8170"
       inkscape:flatsided="false"
       sodipodi:sides="10"
       sodipodi:cx="222.04224"
       sodipodi:cy="645.39618"
       sodipodi:r1="124.01331"
       sodipodi:r2="62.006657"
       sodipodi:arg1="0.65817823"
       sodipodi:arg2="0.9723375"
       inkscape:rounded="0"
       inkscape:randomized="0"
       transform="matrix(0.26432039,0.01179288,-0.01179288,0.26432039,-166.2529,-30.137187)"
       inkscape:transform-center-x="2.8276394"
       inkscape:transform-center-y="-0.42917109"
       d="m 320.15015,721.25223 -63.17523,-24.62585 -0.14878,67.80501 -36.63513,-57.05619 -39.97515,54.76795 3.89835,-67.69302 -64.53237,20.81141 42.94279,-52.47341 -64.440426,-21.0944 65.584546,-17.21074 -39.73442,-54.94286 63.17523,24.62585 0.14878,-67.80502 36.63512,57.0562 39.97515,-54.76796 -3.89835,67.69302 64.53238,-20.8114 -42.9428,52.47341 64.44043,21.0944 -65.58455,17.21074 z" />
  </g>
</svg>
